<svg width="99" height="128" viewBox="0 0 99 128" fill="none" xmlns="http://www.w3.org/2000/svg">
<rect x="0.25" y="0.25" width="98.5" height="127.5" fill="transparent"/>
<path d="M21.9808 18.6178L21.9694 17.6382C21.3854 17.5258 20.8251 17.3633 20.2882 17.1507C19.7889 16.9531 19.3394 16.6565 18.9379 16.2558C18.3375 15.6329 17.9403 14.9203 17.7382 14.1121C17.524 13.2553 17.4167 12.3753 17.4167 11.4708V11.3367C19.1078 11.4015 20.5666 12.02 21.8152 13.198C23.1778 14.4837 23.8407 16.044 23.8188 17.9108L24.7942 18.0715C25.1099 17.1017 25.5548 16.2007 26.1294 15.3671C26.7141 14.5186 27.3735 13.7274 28.1077 12.9931L27.7683 12.6537L28.1077 12.9931C28.2328 12.8681 28.3559 12.8208 28.4979 12.8208C28.64 12.8208 28.7631 12.8681 28.8881 12.9931C29.0132 13.1182 29.0604 13.2413 29.0604 13.3833C29.0604 13.5254 29.0132 13.6485 28.8881 13.7735L29.2417 14.1271L28.8881 13.7735C28.2765 14.3852 27.7258 15.046 27.2363 15.7557C26.7461 16.4665 26.3291 17.2145 25.9857 17.9996L25.7497 18.5388L26.3201 18.6845C28.4335 19.2241 30.1376 20.337 31.4495 22.0302C32.7618 23.7237 33.4167 25.6521 33.4167 27.8333C33.4167 30.4655 32.5056 32.681 30.6766 34.51C28.8477 36.339 26.6321 37.25 24 37.25C21.3679 37.25 19.1523 36.339 17.3233 34.51C15.4944 32.681 14.5833 30.4655 14.5833 27.8333C14.5833 25.5838 15.2719 23.6112 16.6511 21.8956C18.0306 20.1797 19.8011 19.0897 21.9808 18.6178Z" fill="#FF0000" stroke="white"/>
<path d="M73.8975 19.7869L73.8861 18.8072C73.302 18.6949 72.7418 18.5323 72.2049 18.3197C71.7056 18.1221 71.2561 17.8255 70.8545 17.4248C70.2542 16.8019 69.8569 16.0893 69.6549 15.2811C69.4407 14.4243 69.3333 13.5443 69.3333 12.6398V12.5057C71.0244 12.5705 72.4833 13.189 73.7319 14.3671C75.0945 15.6527 75.7574 17.213 75.7355 19.0798L76.7109 19.2405C77.0266 18.2707 77.4715 17.3698 78.0461 16.5361C78.6308 15.6876 79.2901 14.8964 80.0244 14.1621L79.685 13.8227L80.0244 14.1621C80.1494 14.0371 80.2725 13.9898 80.4146 13.9898C80.5566 13.9898 80.6797 14.0371 80.8048 14.1621C80.9298 14.2872 80.9771 14.4103 80.9771 14.5523C80.9771 14.6944 80.9298 14.8175 80.8048 14.9425L81.1583 15.2961L80.8048 14.9425C80.1932 15.5542 79.6425 16.215 79.153 16.9247C78.6628 17.6355 78.2458 18.3836 77.9023 19.1686L77.6664 19.7079L78.2367 19.8535C80.3502 20.3931 82.0543 21.506 83.3662 23.1992C84.6784 24.8927 85.3333 26.8211 85.3333 29.0023C85.3333 31.6345 84.4223 33.85 82.5933 35.679C80.7644 37.508 78.5488 38.419 75.9167 38.419C73.2845 38.419 71.069 37.508 69.24 35.679C67.4111 33.85 66.5 31.6345 66.5 29.0023C66.5 26.7528 67.1886 24.7802 68.5678 23.0646C69.9473 21.3487 71.7178 20.2588 73.8975 19.7869Z" fill="#FF0000" stroke="white"/>
<path d="M21.8975 59.7869L21.8861 58.8072C21.302 58.6949 20.7418 58.5323 20.2049 58.3197C19.7056 58.1221 19.2561 57.8255 18.8545 57.4248C18.2542 56.8019 17.8569 56.0893 17.6549 55.2811C17.4407 54.4243 17.3333 53.5443 17.3333 52.6398V52.5057C19.0244 52.5705 20.4833 53.189 21.7319 54.3671C23.0945 55.6527 23.7574 57.213 23.7355 59.0798L24.7109 59.2405C25.0266 58.2707 25.4715 57.3698 26.0461 56.5361C26.6308 55.6876 27.2901 54.8964 28.0244 54.1621L27.685 53.8227L28.0244 54.1621C28.1494 54.0371 28.2725 53.9898 28.4146 53.9898C28.5566 53.9898 28.6797 54.0371 28.8048 54.1621C28.9298 54.2872 28.9771 54.4103 28.9771 54.5523C28.9771 54.6944 28.9298 54.8175 28.8048 54.9425L29.1583 55.2961L28.8048 54.9425C28.1932 55.5542 27.6425 56.215 27.153 56.9247C26.6628 57.6355 26.2458 58.3836 25.9023 59.1686L25.6664 59.7079L26.2367 59.8535C28.3502 60.3931 30.0543 61.506 31.3662 63.1992C32.6784 64.8927 33.3333 66.8211 33.3333 69.0023C33.3333 71.6345 32.4223 73.85 30.5933 75.679C28.7644 77.508 26.5488 78.419 23.9167 78.419C21.2845 78.419 19.069 77.508 17.24 75.679C15.4111 73.85 14.5 71.6345 14.5 69.0023C14.5 66.7528 15.1886 64.7802 16.5678 63.0646C17.9473 61.3487 19.7178 60.2588 21.8975 59.7869Z" fill="#FF0000" stroke="white"/>
<path d="M74.8975 59.7869L74.8861 58.8072C74.302 58.6949 73.7418 58.5323 73.2049 58.3197C72.7056 58.1221 72.2561 57.8255 71.8545 57.4248C71.2542 56.8019 70.8569 56.0893 70.6549 55.2811C70.4407 54.4243 70.3333 53.5443 70.3333 52.6398V52.5057C72.0244 52.5705 73.4833 53.189 74.7319 54.3671C76.0945 55.6527 76.7574 57.213 76.7355 59.0798L77.7109 59.2405C78.0266 58.2707 78.4715 57.3698 79.0461 56.5361C79.6308 55.6876 80.2901 54.8964 81.0244 54.1621L80.685 53.8227L81.0244 54.1621C81.1494 54.0371 81.2725 53.9898 81.4146 53.9898C81.5566 53.9898 81.6797 54.0371 81.8048 54.1621C81.9298 54.2872 81.9771 54.4103 81.9771 54.5523C81.9771 54.6944 81.9298 54.8175 81.8048 54.9425L82.1583 55.2961L81.8048 54.9425C81.1932 55.5542 80.6425 56.215 80.153 56.9247C79.6628 57.6355 79.2458 58.3836 78.9023 59.1686L78.6664 59.7079L79.2367 59.8535C81.3502 60.3931 83.0543 61.506 84.3662 63.1992C85.6784 64.8927 86.3333 66.8211 86.3333 69.0023C86.3333 71.6345 85.4223 73.85 83.5933 75.679C81.7644 77.508 79.5488 78.419 76.9167 78.419C74.2845 78.419 72.069 77.508 70.24 75.679C68.4111 73.85 67.5 71.6345 67.5 69.0023C67.5 66.7528 68.1886 64.7802 69.5678 63.0646C70.9473 61.3487 72.7178 60.2588 74.8975 59.7869Z" fill="#FF0000" stroke="white"/>
<path d="M22.9808 96.6178L22.9694 95.6382C22.3854 95.5258 21.8251 95.3633 21.2882 95.1507C20.7889 94.9531 20.3394 94.6565 19.9379 94.2558C19.3375 93.6329 18.9403 92.9203 18.7382 92.1121C18.524 91.2553 18.4167 90.3753 18.4167 89.4708V89.3367C20.1078 89.4015 21.5666 90.02 22.8152 91.198C24.1778 92.4837 24.8407 94.044 24.8188 95.9108L25.7942 96.0715C26.1099 95.1017 26.5548 94.2007 27.1294 93.3671C27.7141 92.5186 28.3735 91.7274 29.1077 90.9931L28.7683 90.6537L29.1077 90.9931C29.2328 90.8681 29.3559 90.8208 29.4979 90.8208C29.64 90.8208 29.7631 90.8681 29.8881 90.9931C30.0132 91.1182 30.0604 91.2413 30.0604 91.3833C30.0604 91.5254 30.0132 91.6485 29.8881 91.7735L30.2417 92.1271L29.8881 91.7735C29.2765 92.3852 28.7258 93.046 28.2363 93.7557C27.7461 94.4665 27.3291 95.2145 26.9857 95.9996L26.7497 96.5388L27.3201 96.6845C29.4335 97.2241 31.1376 98.337 32.4495 100.03C33.7618 101.724 34.4167 103.652 34.4167 105.833C34.4167 108.465 33.5056 110.681 31.6766 112.51C29.8477 114.339 27.6321 115.25 25 115.25C22.3679 115.25 20.1523 114.339 18.3233 112.51C16.4944 110.681 15.5833 108.465 15.5833 105.833C15.5833 103.584 16.2719 101.611 17.6511 99.8956C19.0306 98.1797 20.8011 97.0897 22.9808 96.6178Z" fill="#FF0000" stroke="white"/>
<path d="M73.9808 96.6178L73.9694 95.6382C73.3854 95.5258 72.8251 95.3633 72.2882 95.1507C71.7889 94.9531 71.3394 94.6565 70.9379 94.2558C70.3375 93.6329 69.9403 92.9203 69.7382 92.1121C69.524 91.2553 69.4167 90.3753 69.4167 89.4708V89.3367C71.1078 89.4015 72.5666 90.02 73.8152 91.198C75.1778 92.4837 75.8407 94.044 75.8188 95.9108L76.7942 96.0715C77.1099 95.1017 77.5548 94.2007 78.1294 93.3671C78.7141 92.5186 79.3735 91.7274 80.1077 90.9931L79.7683 90.6537L80.1077 90.9931C80.2328 90.8681 80.3559 90.8208 80.4979 90.8208C80.64 90.8208 80.7631 90.8681 80.8881 90.9931C81.0132 91.1182 81.0604 91.2413 81.0604 91.3833C81.0604 91.5254 81.0132 91.6485 80.8881 91.7735L81.2417 92.1271L80.8881 91.7735C80.2765 92.3852 79.7258 93.046 79.2363 93.7557C78.7461 94.4665 78.3291 95.2145 77.9857 95.9996L77.7497 96.5388L78.3201 96.6845C80.4335 97.2241 82.1376 98.337 83.4496 100.03C84.7618 101.724 85.4167 103.652 85.4167 105.833C85.4167 108.465 84.5056 110.681 82.6767 112.51C80.8477 114.339 78.6321 115.25 76 115.25C73.3679 115.25 71.1523 114.339 69.3233 112.51C67.4944 110.681 66.5833 108.465 66.5833 105.833C66.5833 103.584 67.2719 101.611 68.6511 99.8956C70.0306 98.1797 71.8011 97.0897 73.9808 96.6178Z" fill="#FF0000" stroke="white"/>
<path d="M47.9808 39.6178L47.9694 38.6382C47.3854 38.5258 46.8251 38.3633 46.2882 38.1507C45.7889 37.9531 45.3394 37.6565 44.9379 37.2558C44.3375 36.6329 43.9403 35.9203 43.7382 35.1121C43.524 34.2553 43.4167 33.3753 43.4167 32.4708V32.3367C45.1078 32.4015 46.5666 33.02 47.8152 34.198C49.1778 35.4837 49.8407 37.044 49.8188 38.9108L50.7942 39.0715C51.1099 38.1017 51.5548 37.2007 52.1294 36.3671C52.7141 35.5186 53.3735 34.7274 54.1077 33.9931L53.7683 33.6537L54.1077 33.9931C54.2328 33.8681 54.3559 33.8208 54.4979 33.8208C54.64 33.8208 54.7631 33.8681 54.8881 33.9931C55.0132 34.1182 55.0604 34.2413 55.0604 34.3833C55.0604 34.5254 55.0132 34.6485 54.8881 34.7735L55.2417 35.1271L54.8881 34.7735C54.2765 35.3852 53.7258 36.046 53.2363 36.7557C52.7461 37.4665 52.3291 38.2145 51.9857 38.9996L51.7497 39.5388L52.3201 39.6845C54.4335 40.2241 56.1376 41.337 57.4496 43.0302C58.7618 44.7237 59.4167 46.6521 59.4167 48.8333C59.4167 51.4655 58.5056 53.681 56.6767 55.51C54.8477 57.3389 52.6321 58.25 50 58.25C47.3679 58.25 45.1523 57.3389 43.3233 55.51C41.4944 53.681 40.5833 51.4655 40.5833 48.8333C40.5833 46.5838 41.2719 44.6112 42.6511 42.8956C44.0306 41.1796 45.8011 40.0897 47.9808 39.6178Z" fill="#FF0000" stroke="white"/>
<path d="M48.9808 78.6178L48.9694 77.6382C48.3854 77.5258 47.8251 77.3633 47.2882 77.1507C46.7889 76.9531 46.3394 76.6565 45.9379 76.2558C45.3375 75.6329 44.9403 74.9203 44.7382 74.1121C44.524 73.2553 44.4167 72.3753 44.4167 71.4708V71.3367C46.1078 71.4015 47.5666 72.02 48.8152 73.198C50.1778 74.4837 50.8407 76.044 50.8188 77.9108L51.7942 78.0715C52.1099 77.1017 52.5548 76.2007 53.1294 75.3671C53.7141 74.5186 54.3735 73.7274 55.1077 72.9931L54.7683 72.6537L55.1077 72.9931C55.2328 72.8681 55.3559 72.8208 55.4979 72.8208C55.64 72.8208 55.7631 72.8681 55.8881 72.9931C56.0132 73.1182 56.0604 73.2413 56.0604 73.3833C56.0604 73.5254 56.0132 73.6485 55.8881 73.7735L56.2417 74.1271L55.8881 73.7735C55.2765 74.3852 54.7258 75.046 54.2363 75.7557C53.7461 76.4665 53.3291 77.2145 52.9857 77.9996L52.7497 78.5388L53.3201 78.6845C55.4335 79.2241 57.1376 80.337 58.4496 82.0302C59.7618 83.7237 60.4167 85.6521 60.4167 87.8333C60.4167 90.4655 59.5056 92.681 57.6767 94.51C55.8477 96.3389 53.6321 97.25 51 97.25C48.3679 97.25 46.1523 96.3389 44.3233 94.51C42.4944 92.681 41.5833 90.4655 41.5833 87.8333C41.5833 85.5838 42.2719 83.6112 43.6511 81.8956C45.0306 80.1796 46.8011 79.0897 48.9808 78.6178Z" fill="#FF0000" stroke="white"/>
</svg>
