<svg width="99" height="128" viewBox="0 0 99 128" fill="none" xmlns="http://www.w3.org/2000/svg">
<rect x="0.25" y="0.25" width="98.5" height="127.5" fill="transparent"/>
<path d="M70 58.0033C66.1 58.0033 62.7917 56.645 60.075 53.9283C57.3583 51.2116 56 47.9033 56 44.0033C56 40.67 57.025 37.7283 59.075 35.1783C61.125 32.6283 63.7667 31.0033 67 30.3033C66.1333 30.1366 65.3 29.895 64.5 29.5783C63.7 29.2616 62.9833 28.7866 62.35 28.1533C61.4167 27.1866 60.7917 26.07 60.475 24.8033C60.1583 23.5366 60 22.2366 60 20.9033V20.0033C62.8667 19.9366 65.3333 20.8783 67.4 22.8283C69.4667 24.7783 70.4833 27.17 70.45 30.0033C70.9167 28.57 71.575 27.2366 72.425 26.0033C73.275 24.77 74.2333 23.62 75.3 22.5533C75.6 22.2533 75.95 22.1033 76.35 22.1033C76.75 22.1033 77.1 22.2533 77.4 22.5533C77.7 22.8533 77.85 23.2033 77.85 23.6033C77.85 24.0033 77.7 24.3533 77.4 24.6533C76.5667 25.4866 75.8167 26.3866 75.15 27.3533C74.4833 28.32 73.9167 29.3366 73.45 30.4033C76.5833 31.2033 79.125 32.8616 81.075 35.3783C83.025 37.895 84 40.77 84 44.0033C84 47.9033 82.6417 51.2116 79.925 53.9283C77.2083 56.645 73.9 58.0033 70 58.0033Z" fill="#FF0000"/>
<path d="M70 106.003C66.1 106.003 62.7917 104.645 60.075 101.928C57.3583 99.2116 56 95.9033 56 92.0033C56 88.67 57.025 85.7283 59.075 83.1783C61.125 80.6283 63.7667 79.0033 67 78.3033C66.1333 78.1366 65.3 77.895 64.5 77.5783C63.7 77.2616 62.9833 76.7866 62.35 76.1533C61.4167 75.1866 60.7917 74.07 60.475 72.8033C60.1583 71.5366 60 70.2366 60 68.9033V68.0033C62.8667 67.9366 65.3333 68.8783 67.4 70.8283C69.4667 72.7783 70.4833 75.17 70.45 78.0033C70.9167 76.57 71.575 75.2366 72.425 74.0033C73.275 72.77 74.2333 71.62 75.3 70.5533C75.6 70.2533 75.95 70.1033 76.35 70.1033C76.75 70.1033 77.1 70.2533 77.4 70.5533C77.7 70.8533 77.85 71.2033 77.85 71.6033C77.85 72.0033 77.7 72.3533 77.4 72.6533C76.5667 73.4866 75.8167 74.3866 75.15 75.3533C74.4833 76.32 73.9167 77.3366 73.45 78.4033C76.5833 79.2033 79.125 80.8616 81.075 83.3783C83.025 85.895 84 88.77 84 92.0033C84 95.9033 82.6417 99.2116 79.925 101.928C77.2083 104.645 73.9 106.003 70 106.003Z" fill="#FF0000"/>
<path d="M27 58.0033C23.1 58.0033 19.7917 56.645 17.075 53.9283C14.3583 51.2116 13 47.9033 13 44.0033C13 40.67 14.025 37.7283 16.075 35.1783C18.125 32.6283 20.7667 31.0033 24 30.3033C23.1333 30.1366 22.3 29.895 21.5 29.5783C20.7 29.2616 19.9833 28.7866 19.35 28.1533C18.4167 27.1866 17.7917 26.07 17.475 24.8033C17.1583 23.5366 17 22.2366 17 20.9033V20.0033C19.8667 19.9366 22.3333 20.8783 24.4 22.8283C26.4667 24.7783 27.4833 27.17 27.45 30.0033C27.9167 28.57 28.575 27.2366 29.425 26.0033C30.275 24.77 31.2333 23.62 32.3 22.5533C32.6 22.2533 32.95 22.1033 33.35 22.1033C33.75 22.1033 34.1 22.2533 34.4 22.5533C34.7 22.8533 34.85 23.2033 34.85 23.6033C34.85 24.0033 34.7 24.3533 34.4 24.6533C33.5667 25.4866 32.8167 26.3866 32.15 27.3533C31.4833 28.32 30.9167 29.3366 30.45 30.4033C33.5833 31.2033 36.125 32.8616 38.075 35.3783C40.025 37.895 41 40.77 41 44.0033C41 47.9033 39.6417 51.2116 36.925 53.9283C34.2083 56.645 30.9 58.0033 27 58.0033Z" fill="#FF0000"/>
<path d="M27 106.003C23.1 106.003 19.7917 104.645 17.075 101.928C14.3583 99.2116 13 95.9033 13 92.0033C13 88.67 14.025 85.7283 16.075 83.1783C18.125 80.6283 20.7667 79.0033 24 78.3033C23.1333 78.1366 22.3 77.895 21.5 77.5783C20.7 77.2616 19.9833 76.7866 19.35 76.1533C18.4167 75.1866 17.7917 74.07 17.475 72.8033C17.1583 71.5366 17 70.2366 17 68.9033V68.0033C19.8667 67.9366 22.3333 68.8783 24.4 70.8283C26.4667 72.7783 27.4833 75.17 27.45 78.0033C27.9167 76.57 28.575 75.2366 29.425 74.0033C30.275 72.77 31.2333 71.62 32.3 70.5533C32.6 70.2533 32.95 70.1033 33.35 70.1033C33.75 70.1033 34.1 70.2533 34.4 70.5533C34.7 70.8533 34.85 71.2033 34.85 71.6033C34.85 72.0033 34.7 72.3533 34.4 72.6533C33.5667 73.4866 32.8167 74.3866 32.15 75.3533C31.4833 76.32 30.9167 77.3366 30.45 78.4033C33.5833 79.2033 36.125 80.8616 38.075 83.3783C40.025 85.895 41 88.77 41 92.0033C41 95.9033 39.6417 99.2116 36.925 101.928C34.2083 104.645 30.9 106.003 27 106.003Z" fill="#FF0000"/>
</svg>
