<svg width="99" height="128" viewBox="0 0 99 128" fill="none" xmlns="http://www.w3.org/2000/svg">
<rect x="0.25" y="0.25" width="98.5" height="127.5" fill="transparent"/>
<path d="M21.9808 19.6178L21.9694 18.6382C21.3854 18.5258 20.8251 18.3633 20.2882 18.1507C19.7889 17.9531 19.3394 17.6565 18.9379 17.2558C18.3375 16.6329 17.9403 15.9203 17.7382 15.1121C17.524 14.2553 17.4167 13.3753 17.4167 12.4708V12.3367C19.1078 12.4015 20.5666 13.02 21.8152 14.198C23.1778 15.4837 23.8407 17.044 23.8188 18.9108L24.7942 19.0715C25.1099 18.1017 25.5548 17.2007 26.1294 16.3671C26.7141 15.5186 27.3735 14.7274 28.1077 13.9931L27.7683 13.6537L28.1077 13.9931C28.2328 13.8681 28.3559 13.8208 28.4979 13.8208C28.64 13.8208 28.7631 13.8681 28.8881 13.9931C29.0132 14.1182 29.0604 14.2413 29.0604 14.3833C29.0604 14.5254 29.0132 14.6485 28.8881 14.7735L29.2417 15.1271L28.8881 14.7735C28.2765 15.3852 27.7258 16.046 27.2363 16.7557C26.7461 17.4665 26.3291 18.2145 25.9857 18.9996L25.7497 19.5388L26.3201 19.6845C28.4335 20.2241 30.1376 21.337 31.4495 23.0302C32.7618 24.7237 33.4167 26.6521 33.4167 28.8333C33.4167 31.4655 32.5056 33.681 30.6766 35.51C28.8477 37.339 26.6321 38.25 24 38.25C21.3679 38.25 19.1523 37.339 17.3233 35.51C15.4944 33.681 14.5833 31.4655 14.5833 28.8333C14.5833 26.5838 15.2719 24.6112 16.6511 22.8956C18.0306 21.1797 19.8011 20.0897 21.9808 19.6178Z" fill="#FF0000" stroke="white"/>
<path d="M73.8975 20.7869L73.8861 19.8072C73.302 19.6949 72.7418 19.5323 72.2049 19.3197C71.7056 19.1221 71.2561 18.8255 70.8545 18.4248C70.2542 17.8019 69.8569 17.0893 69.6549 16.2811C69.4407 15.4243 69.3333 14.5443 69.3333 13.6398V13.5057C71.0244 13.5705 72.4833 14.189 73.7319 15.3671C75.0945 16.6527 75.7574 18.213 75.7355 20.0798L76.7109 20.2405C77.0266 19.2707 77.4715 18.3698 78.0461 17.5361C78.6308 16.6876 79.2901 15.8964 80.0244 15.1621L79.685 14.8227L80.0244 15.1621C80.1494 15.0371 80.2725 14.9898 80.4146 14.9898C80.5566 14.9898 80.6797 15.0371 80.8048 15.1621C80.9298 15.2872 80.9771 15.4103 80.9771 15.5523C80.9771 15.6944 80.9298 15.8175 80.8048 15.9425L81.1583 16.2961L80.8048 15.9425C80.1932 16.5542 79.6425 17.215 79.153 17.9247C78.6628 18.6355 78.2458 19.3836 77.9023 20.1686L77.6664 20.7079L78.2367 20.8535C80.3502 21.3931 82.0543 22.506 83.3662 24.1992C84.6784 25.8927 85.3333 27.8211 85.3333 30.0023C85.3333 32.6345 84.4223 34.85 82.5933 36.679C80.7644 38.508 78.5488 39.419 75.9167 39.419C73.2845 39.419 71.069 38.508 69.24 36.679C67.4111 34.85 66.5 32.6345 66.5 30.0023C66.5 27.7528 67.1886 25.7802 68.5678 24.0646C69.9473 22.3487 71.7178 21.2588 73.8975 20.7869Z" fill="#FF0000" stroke="white"/>
<path d="M21.8975 63.7869L21.8861 62.8072C21.302 62.6949 20.7418 62.5323 20.2049 62.3197C19.7056 62.1221 19.2561 61.8255 18.8545 61.4248C18.2542 60.8019 17.8569 60.0893 17.6549 59.2811C17.4407 58.4243 17.3333 57.5443 17.3333 56.6398V56.5057C19.0244 56.5705 20.4833 57.189 21.7319 58.3671C23.0945 59.6527 23.7574 61.213 23.7355 63.0798L24.7109 63.2405C25.0266 62.2707 25.4715 61.3698 26.0461 60.5361C26.6308 59.6876 27.2901 58.8964 28.0244 58.1621L27.685 57.8227L28.0244 58.1621C28.1494 58.0371 28.2725 57.9898 28.4146 57.9898C28.5566 57.9898 28.6797 58.0371 28.8048 58.1621C28.9298 58.2872 28.9771 58.4103 28.9771 58.5523C28.9771 58.6944 28.9298 58.8175 28.8048 58.9425L29.1583 59.2961L28.8048 58.9425C28.1932 59.5542 27.6425 60.215 27.153 60.9247C26.6628 61.6355 26.2458 62.3836 25.9023 63.1686L25.6664 63.7079L26.2367 63.8535C28.3502 64.3931 30.0543 65.506 31.3662 67.1992C32.6784 68.8927 33.3333 70.8211 33.3333 73.0023C33.3333 75.6345 32.4223 77.85 30.5933 79.679C28.7644 81.508 26.5488 82.419 23.9167 82.419C21.2845 82.419 19.069 81.508 17.24 79.679C15.4111 77.85 14.5 75.6345 14.5 73.0023C14.5 70.7528 15.1886 68.7802 16.5678 67.0646C17.9473 65.3487 19.7178 64.2588 21.8975 63.7869Z" fill="#FF0000" stroke="white"/>
<path d="M73.8975 63.7869L73.8861 62.8072C73.302 62.6949 72.7418 62.5323 72.2049 62.3197C71.7056 62.1221 71.2561 61.8255 70.8545 61.4248C70.2542 60.8019 69.8569 60.0893 69.6549 59.2811C69.4407 58.4243 69.3333 57.5443 69.3333 56.6398V56.5057C71.0244 56.5705 72.4833 57.189 73.7319 58.3671C75.0945 59.6527 75.7574 61.213 75.7355 63.0798L76.7109 63.2405C77.0266 62.2707 77.4715 61.3698 78.0461 60.5361C78.6308 59.6876 79.2901 58.8964 80.0244 58.1621L79.685 57.8227L80.0244 58.1621C80.1494 58.0371 80.2725 57.9898 80.4146 57.9898C80.5566 57.9898 80.6797 58.0371 80.8048 58.1621C80.9298 58.2872 80.9771 58.4103 80.9771 58.5523C80.9771 58.6944 80.9298 58.8175 80.8048 58.9425L81.1583 59.2961L80.8048 58.9425C80.1932 59.5542 79.6425 60.215 79.153 60.9247C78.6628 61.6355 78.2458 62.3836 77.9023 63.1686L77.6664 63.7079L78.2367 63.8535C80.3502 64.3931 82.0543 65.506 83.3662 67.1992C84.6784 68.8927 85.3333 70.8211 85.3333 73.0023C85.3333 75.6345 84.4223 77.85 82.5933 79.679C80.7644 81.508 78.5488 82.419 75.9167 82.419C73.2845 82.419 71.069 81.508 69.24 79.679C67.4111 77.85 66.5 75.6345 66.5 73.0023C66.5 70.7528 67.1886 68.7802 68.5678 67.0646C69.9473 65.3487 71.7178 64.2588 73.8975 63.7869Z" fill="#FF0000" stroke="white"/>
<path d="M22.9808 97.6178L22.9694 96.6382C22.3854 96.5258 21.8251 96.3633 21.2882 96.1507C20.7889 95.9531 20.3394 95.6565 19.9379 95.2558C19.3375 94.6329 18.9403 93.9203 18.7382 93.1121C18.524 92.2553 18.4167 91.3753 18.4167 90.4708V90.3367C20.1078 90.4015 21.5666 91.02 22.8152 92.198C24.1778 93.4837 24.8407 95.044 24.8188 96.9108L25.7942 97.0715C26.1099 96.1017 26.5548 95.2007 27.1294 94.3671C27.7141 93.5186 28.3735 92.7274 29.1077 91.9931L28.7683 91.6537L29.1077 91.9931C29.2328 91.8681 29.3559 91.8208 29.4979 91.8208C29.64 91.8208 29.7631 91.8681 29.8881 91.9931C30.0132 92.1182 30.0604 92.2413 30.0604 92.3833C30.0604 92.5254 30.0132 92.6485 29.8881 92.7735L30.2417 93.1271L29.8881 92.7735C29.2765 93.3852 28.7258 94.046 28.2363 94.7557C27.7461 95.4665 27.3291 96.2145 26.9857 96.9996L26.7497 97.5388L27.3201 97.6845C29.4335 98.2241 31.1376 99.337 32.4495 101.03C33.7618 102.724 34.4167 104.652 34.4167 106.833C34.4167 109.465 33.5056 111.681 31.6766 113.51C29.8477 115.339 27.6321 116.25 25 116.25C22.3679 116.25 20.1523 115.339 18.3233 113.51C16.4944 111.681 15.5833 109.465 15.5833 106.833C15.5833 104.584 16.2719 102.611 17.6511 100.896C19.0306 99.1797 20.8011 98.0897 22.9808 97.6178Z" fill="#FF0000" stroke="white"/>
<path d="M73.9808 97.6178L73.9694 96.6382C73.3854 96.5258 72.8251 96.3633 72.2882 96.1507C71.7889 95.9531 71.3394 95.6565 70.9379 95.2558C70.3375 94.6329 69.9403 93.9203 69.7382 93.1121C69.524 92.2553 69.4167 91.3753 69.4167 90.4708V90.3367C71.1078 90.4015 72.5666 91.02 73.8152 92.198C75.1778 93.4837 75.8407 95.044 75.8188 96.9108L76.7942 97.0715C77.1099 96.1017 77.5548 95.2007 78.1294 94.3671C78.7141 93.5186 79.3735 92.7274 80.1077 91.9931L79.7683 91.6537L80.1077 91.9931C80.2328 91.8681 80.3559 91.8208 80.4979 91.8208C80.64 91.8208 80.7631 91.8681 80.8881 91.9931C81.0132 92.1182 81.0604 92.2413 81.0604 92.3833C81.0604 92.5254 81.0132 92.6485 80.8881 92.7735L81.2417 93.1271L80.8881 92.7735C80.2765 93.3852 79.7258 94.046 79.2363 94.7557C78.7461 95.4665 78.3291 96.2145 77.9857 96.9996L77.7497 97.5388L78.3201 97.6845C80.4335 98.2241 82.1376 99.337 83.4496 101.03C84.7618 102.724 85.4167 104.652 85.4167 106.833C85.4167 109.465 84.5056 111.681 82.6767 113.51C80.8477 115.339 78.6321 116.25 76 116.25C73.3679 116.25 71.1523 115.339 69.3233 113.51C67.4944 111.681 66.5833 109.465 66.5833 106.833C66.5833 104.584 67.2719 102.611 68.6511 100.896C70.0306 99.1797 71.8011 98.0897 73.9808 97.6178Z" fill="#FF0000" stroke="white"/>
<path d="M47.9808 40.6178L47.9694 39.6382C47.3854 39.5258 46.8251 39.3633 46.2882 39.1507C45.7889 38.9531 45.3394 38.6565 44.9379 38.2558C44.3375 37.6329 43.9403 36.9203 43.7382 36.1121C43.524 35.2553 43.4167 34.3753 43.4167 33.4708V33.3367C45.1078 33.4015 46.5666 34.02 47.8152 35.198C49.1778 36.4837 49.8407 38.044 49.8188 39.9108L50.7942 40.0715C51.1099 39.1017 51.5548 38.2007 52.1294 37.3671C52.7141 36.5186 53.3735 35.7274 54.1077 34.9931L53.7683 34.6537L54.1077 34.9931C54.2328 34.8681 54.3559 34.8208 54.4979 34.8208C54.64 34.8208 54.7631 34.8681 54.8881 34.9931C55.0132 35.1182 55.0604 35.2413 55.0604 35.3833C55.0604 35.5254 55.0132 35.6485 54.8881 35.7735L55.2417 36.1271L54.8881 35.7735C54.2765 36.3852 53.7258 37.046 53.2363 37.7557C52.7461 38.4665 52.3291 39.2145 51.9857 39.9996L51.7497 40.5388L52.3201 40.6845C54.4335 41.2241 56.1376 42.337 57.4496 44.0302C58.7618 45.7237 59.4167 47.6521 59.4167 49.8333C59.4167 52.4655 58.5056 54.681 56.6767 56.51C54.8477 58.339 52.6321 59.25 50 59.25C47.3679 59.25 45.1523 58.339 43.3233 56.51C41.4944 54.681 40.5833 52.4655 40.5833 49.8333C40.5833 47.5838 41.2719 45.6112 42.6511 43.8956C44.0306 42.1797 45.8011 41.0897 47.9808 40.6178Z" fill="#FF0000" stroke="white"/>
</svg>
