<svg width="99" height="128" viewBox="0 0 99 128" fill="none" xmlns="http://www.w3.org/2000/svg">
<rect x="0.25" y="0.25" width="98.5" height="127.5" fill="transparent"/>
<path d="M50 83.0033C46.1 83.0033 42.7917 81.645 40.075 78.9283C37.3583 76.2116 36 72.9033 36 69.0033C36 65.67 37.025 62.7283 39.075 60.1783C41.125 57.6283 43.7667 56.0033 47 55.3033C46.1333 55.1366 45.3 54.895 44.5 54.5783C43.7 54.2616 42.9833 53.7866 42.35 53.1533C41.4167 52.1866 40.7917 51.07 40.475 49.8033C40.1583 48.5366 40 47.2366 40 45.9033V45.0033C42.8667 44.9366 45.3333 45.8783 47.4 47.8283C49.4667 49.7783 50.4833 52.17 50.45 55.0033C50.9167 53.57 51.575 52.2366 52.425 51.0033C53.275 49.77 54.2333 48.62 55.3 47.5533C55.6 47.2533 55.95 47.1033 56.35 47.1033C56.75 47.1033 57.1 47.2533 57.4 47.5533C57.7 47.8533 57.85 48.2033 57.85 48.6033C57.85 49.0033 57.7 49.3533 57.4 49.6533C56.5667 50.4866 55.8167 51.3866 55.15 52.3533C54.4833 53.32 53.9167 54.3366 53.45 55.4033C56.5833 56.2033 59.125 57.8616 61.075 60.3783C63.025 62.895 64 65.77 64 69.0033C64 72.9033 62.6417 76.2116 59.925 78.9283C57.2083 81.645 53.9 83.0033 50 83.0033Z" fill="#FF0000"/>
</svg>
