<svg width="99" height="128" viewBox="0 0 99 128" fill="none" xmlns="http://www.w3.org/2000/svg">
<rect x="0.25" y="0.25" width="98.5" height="127.5" fill="transparent"/>
<path d="M43.1058 31.7887L43.0944 30.809C42.2576 30.6481 41.4543 30.415 40.684 30.1101C39.9514 29.8201 39.2929 29.385 38.7066 28.7995C37.834 27.8947 37.2545 26.8564 36.9601 25.6787C36.6535 24.4526 36.5 23.1933 36.5 21.9V21.4987C39.0275 21.547 41.2051 22.4415 43.0569 24.1887C45.0222 26.0431 45.9817 28.3009 45.95 30.9941L46.9254 31.1548C47.3773 29.767 48.0142 28.4771 48.8367 27.2837C49.6694 26.0756 50.6082 24.9489 51.6536 23.9035C51.8661 23.691 52.0913 23.6 52.35 23.6C52.6087 23.6 52.8339 23.691 53.0464 23.9035L53.4 23.55L53.0464 23.9035C53.259 24.1161 53.35 24.3413 53.35 24.6C53.35 24.8587 53.259 25.0839 53.0464 25.2964L53.4 25.65L53.0464 25.2964C52.1918 26.1511 51.4223 27.0744 50.7384 28.0661C50.0538 29.0588 49.4715 30.1034 48.9919 31.1996L48.756 31.7388L49.3263 31.8845C52.3537 32.6574 54.7991 34.254 56.6798 36.6812C58.5607 39.1088 59.5 41.8757 59.5 45C59.5 48.7696 58.1928 51.9501 55.5714 54.5714C52.9501 57.1928 49.7696 58.5 46 58.5C42.2304 58.5 39.0499 57.1928 36.4286 54.5714C33.8072 51.9501 32.5 48.7696 32.5 45C32.5 41.7783 33.4875 38.9477 35.4647 36.4883C37.4421 34.0286 39.983 32.4647 43.1058 31.7887Z" fill="#FF0000" stroke="white"/>
<path d="M43.1058 79.7887L43.0944 78.809C42.2576 78.6481 41.4543 78.415 40.684 78.1101C39.9514 77.8201 39.2929 77.385 38.7066 76.7995C37.834 75.8947 37.2545 74.8564 36.9601 73.6787C36.6535 72.4526 36.5 71.1933 36.5 69.9V69.4988C39.0275 69.547 41.2051 70.4415 43.0569 72.1887C45.0222 74.0431 45.9817 76.3009 45.95 78.9941L46.9254 79.1548C47.3773 77.767 48.0142 76.4771 48.8367 75.2837C49.6694 74.0756 50.6082 72.9489 51.6536 71.9036C51.8661 71.691 52.0913 71.6 52.35 71.6C52.6087 71.6 52.8339 71.691 53.0464 71.9036L53.4 71.55L53.0464 71.9036C53.259 72.1161 53.35 72.3413 53.35 72.6C53.35 72.8587 53.259 73.0839 53.0464 73.2964L53.4 73.65L53.0464 73.2964C52.1918 74.1511 51.4223 75.0744 50.7384 76.0661C50.0538 77.0588 49.4715 78.1034 48.9919 79.1996L48.756 79.7389L49.3263 79.8845C52.3537 80.6574 54.7991 82.254 56.6798 84.6812C58.5607 87.1088 59.5 89.8757 59.5 93C59.5 96.7696 58.1928 99.9501 55.5714 102.571C52.9501 105.193 49.7696 106.5 46 106.5C42.2304 106.5 39.0499 105.193 36.4286 102.571C33.8072 99.9501 32.5 96.7696 32.5 93C32.5 89.7783 33.4875 86.9477 35.4647 84.4883C37.4421 82.0286 39.983 80.4647 43.1058 79.7887Z" fill="#FF0000" stroke="white"/>
</svg>
