<svg width="99" height="128" viewBox="0 0 99 128" fill="none" xmlns="http://www.w3.org/2000/svg">
<rect x="0.25" y="0.25" width="98.5" height="127.5" fill="transparent"/>
<path d="M21 34.0016C19.05 34.0016 17.3958 33.3225 16.0375 31.9641C14.6792 30.6058 14 28.9517 14 27.0017C14 25.335 14.5125 23.8642 15.5375 22.5892C16.5625 21.3142 17.8833 20.5017 19.5 20.1517C19.0667 20.0683 18.65 19.9475 18.25 19.7892C17.85 19.6308 17.4917 19.3933 17.175 19.0767C16.7083 18.5933 16.3958 18.035 16.2375 17.4017C16.0792 16.7683 16 16.1183 16 15.4517V15.0017C17.4333 14.9683 18.6667 15.4392 19.7 16.4142C20.7333 17.3892 21.2417 18.585 21.225 20.0017C21.4583 19.285 21.7875 18.6183 22.2125 18.0017C22.6375 17.385 23.1167 16.81 23.65 16.2767C23.8 16.1267 23.975 16.0517 24.175 16.0517C24.375 16.0517 24.55 16.1267 24.7 16.2767C24.85 16.4267 24.925 16.6017 24.925 16.8017C24.925 17.0017 24.85 17.1767 24.7 17.3267C24.2833 17.7433 23.9083 18.1933 23.575 18.6767C23.2417 19.16 22.9583 19.6683 22.725 20.2017C24.2917 20.6017 25.5625 21.4308 26.5375 22.6892C27.5125 23.9475 28 25.385 28 27.0017C28 28.9517 27.3208 30.6058 25.9625 31.9641C24.6042 33.3225 22.95 34.0016 21 34.0016Z" fill="#FF0000"/>
<path d="M50 63.0016C48.05 63.0016 46.3958 62.3225 45.0375 60.9641C43.6792 59.6058 43 57.9517 43 56.0017C43 54.335 43.5125 52.8642 44.5375 51.5892C45.5625 50.3142 46.8833 49.5017 48.5 49.1517C48.0667 49.0683 47.65 48.9475 47.25 48.7892C46.85 48.6308 46.4917 48.3933 46.175 48.0767C45.7083 47.5933 45.3958 47.035 45.2375 46.4017C45.0792 45.7683 45 45.1183 45 44.4517V44.0017C46.4333 43.9683 47.6667 44.4392 48.7 45.4142C49.7333 46.3892 50.2417 47.585 50.225 49.0017C50.4583 48.285 50.7875 47.6183 51.2125 47.0017C51.6375 46.385 52.1167 45.81 52.65 45.2767C52.8 45.1267 52.975 45.0517 53.175 45.0517C53.375 45.0517 53.55 45.1267 53.7 45.2767C53.85 45.4267 53.925 45.6017 53.925 45.8017C53.925 46.0017 53.85 46.1767 53.7 46.3267C53.2833 46.7433 52.9083 47.1933 52.575 47.6767C52.2417 48.16 51.9583 48.6683 51.725 49.2017C53.2917 49.6017 54.5625 50.4308 55.5375 51.6892C56.5125 52.9475 57 54.385 57 56.0017C57 57.9517 56.3208 59.6058 54.9625 60.9641C53.6042 62.3225 51.95 63.0016 50 63.0016Z" fill="#FF0000"/>
<path d="M21 88.0016C19.05 88.0016 17.3958 87.3225 16.0375 85.9641C14.6792 84.6058 14 82.9517 14 81.0017C14 79.335 14.5125 77.8642 15.5375 76.5892C16.5625 75.3142 17.8833 74.5017 19.5 74.1517C19.0667 74.0683 18.65 73.9475 18.25 73.7892C17.85 73.6308 17.4917 73.3933 17.175 73.0767C16.7083 72.5933 16.3958 72.035 16.2375 71.4017C16.0792 70.7683 16 70.1183 16 69.4517V69.0017C17.4333 68.9683 18.6667 69.4392 19.7 70.4142C20.7333 71.3892 21.2417 72.585 21.225 74.0017C21.4583 73.285 21.7875 72.6183 22.2125 72.0017C22.6375 71.385 23.1167 70.81 23.65 70.2767C23.8 70.1267 23.975 70.0517 24.175 70.0517C24.375 70.0517 24.55 70.1267 24.7 70.2767C24.85 70.4267 24.925 70.6017 24.925 70.8017C24.925 71.0017 24.85 71.1767 24.7 71.3267C24.2833 71.7433 23.9083 72.1933 23.575 72.6767C23.2417 73.16 22.9583 73.6683 22.725 74.2017C24.2917 74.6017 25.5625 75.4308 26.5375 76.6892C27.5125 77.9475 28 79.385 28 81.0017C28 82.9517 27.3208 84.6058 25.9625 85.9641C24.6042 87.3225 22.95 88.0016 21 88.0016Z" fill="#FF0000"/>
<path d="M50 88.0016C48.05 88.0016 46.3958 87.3225 45.0375 85.9641C43.6792 84.6058 43 82.9517 43 81.0017C43 79.335 43.5125 77.8642 44.5375 76.5892C45.5625 75.3142 46.8833 74.5017 48.5 74.1517C48.0667 74.0683 47.65 73.9475 47.25 73.7892C46.85 73.6308 46.4917 73.3933 46.175 73.0767C45.7083 72.5933 45.3958 72.035 45.2375 71.4017C45.0792 70.7683 45 70.1183 45 69.4517V69.0017C46.4333 68.9683 47.6667 69.4392 48.7 70.4142C49.7333 71.3892 50.2417 72.585 50.225 74.0017C50.4583 73.285 50.7875 72.6183 51.2125 72.0017C51.6375 71.385 52.1167 70.81 52.65 70.2767C52.8 70.1267 52.975 70.0517 53.175 70.0517C53.375 70.0517 53.55 70.1267 53.7 70.2767C53.85 70.4267 53.925 70.6017 53.925 70.8017C53.925 71.0017 53.85 71.1767 53.7 71.3267C53.2833 71.7433 52.9083 72.1933 52.575 72.6767C52.2417 73.16 51.9583 73.6683 51.725 74.2017C53.2917 74.6017 54.5625 75.4308 55.5375 76.6892C56.5125 77.9475 57 79.385 57 81.0017C57 82.9517 56.3208 84.6058 54.9625 85.9641C53.6042 87.3225 51.95 88.0016 50 88.0016Z" fill="#FF0000"/>
<path d="M80 88.0016C78.05 88.0016 76.3958 87.3225 75.0375 85.9641C73.6792 84.6058 73 82.9517 73 81.0017C73 79.335 73.5125 77.8642 74.5375 76.5892C75.5625 75.3142 76.8833 74.5017 78.5 74.1517C78.0667 74.0683 77.65 73.9475 77.25 73.7892C76.85 73.6308 76.4917 73.3933 76.175 73.0767C75.7083 72.5933 75.3958 72.035 75.2375 71.4017C75.0792 70.7683 75 70.1183 75 69.4517V69.0017C76.4333 68.9683 77.6667 69.4392 78.7 70.4142C79.7333 71.3892 80.2417 72.585 80.225 74.0017C80.4583 73.285 80.7875 72.6183 81.2125 72.0017C81.6375 71.385 82.1167 70.81 82.65 70.2767C82.8 70.1267 82.975 70.0517 83.175 70.0517C83.375 70.0517 83.55 70.1267 83.7 70.2767C83.85 70.4267 83.925 70.6017 83.925 70.8017C83.925 71.0017 83.85 71.1767 83.7 71.3267C83.2833 71.7433 82.9083 72.1933 82.575 72.6767C82.2417 73.16 81.9583 73.6683 81.725 74.2017C83.2917 74.6017 84.5625 75.4308 85.5375 76.6892C86.5125 77.9475 87 79.385 87 81.0017C87 82.9517 86.3208 84.6058 84.9625 85.9641C83.6042 87.3225 81.95 88.0016 80 88.0016Z" fill="#FF0000"/>
<path d="M81 111.002C79.05 111.002 77.3958 110.322 76.0375 108.964C74.6792 107.606 74 105.952 74 104.002C74 102.335 74.5125 100.864 75.5375 99.5892C76.5625 98.3142 77.8833 97.5017 79.5 97.1517C79.0667 97.0683 78.65 96.9475 78.25 96.7892C77.85 96.6308 77.4917 96.3933 77.175 96.0767C76.7083 95.5933 76.3958 95.035 76.2375 94.4017C76.0792 93.7683 76 93.1183 76 92.4517V92.0017C77.4333 91.9683 78.6667 92.4392 79.7 93.4142C80.7333 94.3892 81.2417 95.585 81.225 97.0017C81.4583 96.285 81.7875 95.6183 82.2125 95.0017C82.6375 94.385 83.1167 93.81 83.65 93.2767C83.8 93.1267 83.975 93.0517 84.175 93.0517C84.375 93.0517 84.55 93.1267 84.7 93.2767C84.85 93.4267 84.925 93.6017 84.925 93.8017C84.925 94.0017 84.85 94.1767 84.7 94.3267C84.2833 94.7433 83.9083 95.1933 83.575 95.6767C83.2417 96.16 82.9583 96.6683 82.725 97.2017C84.2917 97.6017 85.5625 98.4308 86.5375 99.6892C87.5125 100.947 88 102.385 88 104.002C88 105.952 87.3208 107.606 85.9625 108.964C84.6042 110.322 82.95 111.002 81 111.002Z" fill="#FF0000"/>
<path d="M50 113.002C48.05 113.002 46.3958 112.322 45.0375 110.964C43.6792 109.606 43 107.952 43 106.002C43 104.335 43.5125 102.864 44.5375 101.589C45.5625 100.314 46.8833 99.5017 48.5 99.1517C48.0667 99.0683 47.65 98.9475 47.25 98.7892C46.85 98.6308 46.4917 98.3933 46.175 98.0767C45.7083 97.5933 45.3958 97.035 45.2375 96.4017C45.0792 95.7683 45 95.1183 45 94.4517V94.0017C46.4333 93.9683 47.6667 94.4392 48.7 95.4142C49.7333 96.3892 50.2417 97.585 50.225 99.0017C50.4583 98.285 50.7875 97.6183 51.2125 97.0017C51.6375 96.385 52.1167 95.81 52.65 95.2767C52.8 95.1267 52.975 95.0517 53.175 95.0517C53.375 95.0517 53.55 95.1267 53.7 95.2767C53.85 95.4267 53.925 95.6017 53.925 95.8017C53.925 96.0017 53.85 96.1767 53.7 96.3267C53.2833 96.7433 52.9083 97.1933 52.575 97.6767C52.2417 98.16 51.9583 98.6683 51.725 99.2017C53.2917 99.6017 54.5625 100.431 55.5375 101.689C56.5125 102.947 57 104.385 57 106.002C57 107.952 56.3208 109.606 54.9625 110.964C53.6042 112.322 51.95 113.002 50 113.002Z" fill="#FF0000"/>
<path d="M21 113.002C19.05 113.002 17.3958 112.322 16.0375 110.964C14.6792 109.606 14 107.952 14 106.002C14 104.335 14.5125 102.864 15.5375 101.589C16.5625 100.314 17.8833 99.5017 19.5 99.1517C19.0667 99.0683 18.65 98.9475 18.25 98.7892C17.85 98.6308 17.4917 98.3933 17.175 98.0767C16.7083 97.5933 16.3958 97.035 16.2375 96.4017C16.0792 95.7683 16 95.1183 16 94.4517V94.0017C17.4333 93.9683 18.6667 94.4392 19.7 95.4142C20.7333 96.3892 21.2417 97.585 21.225 99.0017C21.4583 98.285 21.7875 97.6183 22.2125 97.0017C22.6375 96.385 23.1167 95.81 23.65 95.2767C23.8 95.1267 23.975 95.0517 24.175 95.0517C24.375 95.0517 24.55 95.1267 24.7 95.2767C24.85 95.4267 24.925 95.6017 24.925 95.8017C24.925 96.0017 24.85 96.1767 24.7 96.3267C24.2833 96.7433 23.9083 97.1933 23.575 97.6767C23.2417 98.16 22.9583 98.6683 22.725 99.2017C24.2917 99.6017 25.5625 100.431 26.5375 101.689C27.5125 102.947 28 104.385 28 106.002C28 107.952 27.3208 109.606 25.9625 110.964C24.6042 112.322 22.95 113.002 21 113.002Z" fill="#FF0000"/>
<path d="M50 34.0016C48.05 34.0016 46.3958 33.3225 45.0375 31.9641C43.6792 30.6058 43 28.9517 43 27.0017C43 25.335 43.5125 23.8642 44.5375 22.5892C45.5625 21.3142 46.8833 20.5017 48.5 20.1517C48.0667 20.0683 47.65 19.9475 47.25 19.7892C46.85 19.6308 46.4917 19.3933 46.175 19.0767C45.7083 18.5933 45.3958 18.035 45.2375 17.4017C45.0792 16.7683 45 16.1183 45 15.4517V15.0017C46.4333 14.9683 47.6667 15.4392 48.7 16.4142C49.7333 17.3892 50.2417 18.585 50.225 20.0017C50.4583 19.285 50.7875 18.6183 51.2125 18.0017C51.6375 17.385 52.1167 16.81 52.65 16.2767C52.8 16.1267 52.975 16.0517 53.175 16.0517C53.375 16.0517 53.55 16.1267 53.7 16.2767C53.85 16.4267 53.925 16.6017 53.925 16.8017C53.925 17.0017 53.85 17.1767 53.7 17.3267C53.2833 17.7433 52.9083 18.1933 52.575 18.6767C52.2417 19.16 51.9583 19.6683 51.725 20.2017C53.2917 20.6017 54.5625 21.4308 55.5375 22.6892C56.5125 23.9475 57 25.385 57 27.0017C57 28.9517 56.3208 30.6058 54.9625 31.9641C53.6042 33.3225 51.95 34.0016 50 34.0016Z" fill="#FF0000"/>
<path d="M80 34.0016C78.05 34.0016 76.3958 33.3225 75.0375 31.9641C73.6792 30.6058 73 28.9517 73 27.0017C73 25.335 73.5125 23.8642 74.5375 22.5892C75.5625 21.3142 76.8833 20.5017 78.5 20.1517C78.0667 20.0683 77.65 19.9475 77.25 19.7892C76.85 19.6308 76.4917 19.3933 76.175 19.0767C75.7083 18.5933 75.3958 18.035 75.2375 17.4017C75.0792 16.7683 75 16.1183 75 15.4517V15.0017C76.4333 14.9683 77.6667 15.4392 78.7 16.4142C79.7333 17.3892 80.2417 18.585 80.225 20.0017C80.4583 19.285 80.7875 18.6183 81.2125 18.0017C81.6375 17.385 82.1167 16.81 82.65 16.2767C82.8 16.1267 82.975 16.0517 83.175 16.0517C83.375 16.0517 83.55 16.1267 83.7 16.2767C83.85 16.4267 83.925 16.6017 83.925 16.8017C83.925 17.0017 83.85 17.1767 83.7 17.3267C83.2833 17.7433 82.9083 18.1933 82.575 18.6767C82.2417 19.16 81.9583 19.6683 81.725 20.2017C83.2917 20.6017 84.5625 21.4308 85.5375 22.6892C86.5125 23.9475 87 25.385 87 27.0017C87 28.9517 86.3208 30.6058 84.9625 31.9641C83.6042 33.3225 81.95 34.0016 80 34.0016Z" fill="#FF0000"/>
</svg>
