<svg width="99" height="128" viewBox="0 0 99 128" fill="none" xmlns="http://www.w3.org/2000/svg">
<rect x="0.25" y="0.25" width="98.5" height="127.5" fill="transparent"/>
<path d="M69 43.0033C65.1 43.0033 61.7917 41.645 59.075 38.9283C56.3583 36.2116 55 32.9033 55 29.0033C55 25.67 56.025 22.7283 58.075 20.1783C60.125 17.6283 62.7667 16.0033 66 15.3033C65.1333 15.1366 64.3 14.895 63.5 14.5783C62.7 14.2616 61.9833 13.7866 61.35 13.1533C60.4167 12.1866 59.7917 11.07 59.475 9.80331C59.1583 8.53664 59 7.23664 59 5.90331V5.00331C61.8667 4.93664 64.3333 5.87831 66.4 7.82831C68.4667 9.77831 69.4833 12.17 69.45 15.0033C69.9167 13.57 70.575 12.2366 71.425 11.0033C72.275 9.76997 73.2333 8.61997 74.3 7.55331C74.6 7.25331 74.95 7.10331 75.35 7.10331C75.75 7.10331 76.1 7.25331 76.4 7.55331C76.7 7.85331 76.85 8.20331 76.85 8.60331C76.85 9.00331 76.7 9.35331 76.4 9.65331C75.5667 10.4866 74.8167 11.3866 74.15 12.3533C73.4833 13.32 72.9167 14.3366 72.45 15.4033C75.5833 16.2033 78.125 17.8616 80.075 20.3783C82.025 22.895 83 25.77 83 29.0033C83 32.9033 81.6417 36.2116 78.925 38.9283C76.2083 41.645 72.9 43.0033 69 43.0033Z" fill="#FF0000"/>
<path d="M31 43.0033C27.1 43.0033 23.7917 41.645 21.075 38.9283C18.3583 36.2116 17 32.9033 17 29.0033C17 25.67 18.025 22.7283 20.075 20.1783C22.125 17.6283 24.7667 16.0033 28 15.3033C27.1333 15.1366 26.3 14.895 25.5 14.5783C24.7 14.2616 23.9833 13.7866 23.35 13.1533C22.4167 12.1866 21.7917 11.07 21.475 9.80331C21.1583 8.53664 21 7.23664 21 5.90331V5.00331C23.8667 4.93664 26.3333 5.87831 28.4 7.82831C30.4667 9.77831 31.4833 12.17 31.45 15.0033C31.9167 13.57 32.575 12.2366 33.425 11.0033C34.275 9.76997 35.2333 8.61997 36.3 7.55331C36.6 7.25331 36.95 7.10331 37.35 7.10331C37.75 7.10331 38.1 7.25331 38.4 7.55331C38.7 7.85331 38.85 8.20331 38.85 8.60331C38.85 9.00331 38.7 9.35331 38.4 9.65331C37.5667 10.4866 36.8167 11.3866 36.15 12.3533C35.4833 13.32 34.9167 14.3366 34.45 15.4033C37.5833 16.2033 40.125 17.8616 42.075 20.3783C44.025 22.895 45 25.77 45 29.0033C45 32.9033 43.6417 36.2116 40.925 38.9283C38.2083 41.645 34.9 43.0033 31 43.0033Z" fill="#FF0000"/>
<path d="M69 84.0033C65.1 84.0033 61.7917 82.645 59.075 79.9283C56.3583 77.2116 55 73.9033 55 70.0033C55 66.67 56.025 63.7283 58.075 61.1783C60.125 58.6283 62.7667 57.0033 66 56.3033C65.1333 56.1366 64.3 55.895 63.5 55.5783C62.7 55.2616 61.9833 54.7866 61.35 54.1533C60.4167 53.1866 59.7917 52.07 59.475 50.8033C59.1583 49.5366 59 48.2366 59 46.9033V46.0033C61.8667 45.9366 64.3333 46.8783 66.4 48.8283C68.4667 50.7783 69.4833 53.17 69.45 56.0033C69.9167 54.57 70.575 53.2366 71.425 52.0033C72.275 50.77 73.2333 49.62 74.3 48.5533C74.6 48.2533 74.95 48.1033 75.35 48.1033C75.75 48.1033 76.1 48.2533 76.4 48.5533C76.7 48.8533 76.85 49.2033 76.85 49.6033C76.85 50.0033 76.7 50.3533 76.4 50.6533C75.5667 51.4866 74.8167 52.3866 74.15 53.3533C73.4833 54.32 72.9167 55.3366 72.45 56.4033C75.5833 57.2033 78.125 58.8616 80.075 61.3783C82.025 63.895 83 66.77 83 70.0033C83 73.9033 81.6417 77.2116 78.925 79.9283C76.2083 82.645 72.9 84.0033 69 84.0033Z" fill="#FF0000"/>
<path d="M31 84.0033C27.1 84.0033 23.7917 82.645 21.075 79.9283C18.3583 77.2116 17 73.9033 17 70.0033C17 66.67 18.025 63.7283 20.075 61.1783C22.125 58.6283 24.7667 57.0033 28 56.3033C27.1333 56.1366 26.3 55.895 25.5 55.5783C24.7 55.2616 23.9833 54.7866 23.35 54.1533C22.4167 53.1866 21.7917 52.07 21.475 50.8033C21.1583 49.5366 21 48.2366 21 46.9033V46.0033C23.8667 45.9366 26.3333 46.8783 28.4 48.8283C30.4667 50.7783 31.4833 53.17 31.45 56.0033C31.9167 54.57 32.575 53.2366 33.425 52.0033C34.275 50.77 35.2333 49.62 36.3 48.5533C36.6 48.2533 36.95 48.1033 37.35 48.1033C37.75 48.1033 38.1 48.2533 38.4 48.5533C38.7 48.8533 38.85 49.2033 38.85 49.6033C38.85 50.0033 38.7 50.3533 38.4 50.6533C37.5667 51.4866 36.8167 52.3866 36.15 53.3533C35.4833 54.32 34.9167 55.3366 34.45 56.4033C37.5833 57.2033 40.125 58.8616 42.075 61.3783C44.025 63.895 45 66.77 45 70.0033C45 73.9033 43.6417 77.2116 40.925 79.9283C38.2083 82.645 34.9 84.0033 31 84.0033Z" fill="#FF0000"/>
<path d="M31 125.003C27.1 125.003 23.7917 123.645 21.075 120.928C18.3583 118.212 17 114.903 17 111.003C17 107.67 18.025 104.728 20.075 102.178C22.125 99.6283 24.7667 98.0033 28 97.3033C27.1333 97.1366 26.3 96.895 25.5 96.5783C24.7 96.2616 23.9833 95.7866 23.35 95.1533C22.4167 94.1866 21.7917 93.07 21.475 91.8033C21.1583 90.5366 21 89.2366 21 87.9033V87.0033C23.8667 86.9366 26.3333 87.8783 28.4 89.8283C30.4667 91.7783 31.4833 94.17 31.45 97.0033C31.9167 95.57 32.575 94.2366 33.425 93.0033C34.275 91.77 35.2333 90.62 36.3 89.5533C36.6 89.2533 36.95 89.1033 37.35 89.1033C37.75 89.1033 38.1 89.2533 38.4 89.5533C38.7 89.8533 38.85 90.2033 38.85 90.6033C38.85 91.0033 38.7 91.3533 38.4 91.6533C37.5667 92.4866 36.8167 93.3866 36.15 94.3533C35.4833 95.32 34.9167 96.3366 34.45 97.4033C37.5833 98.2033 40.125 99.8616 42.075 102.378C44.025 104.895 45 107.77 45 111.003C45 114.903 43.6417 118.212 40.925 120.928C38.2083 123.645 34.9 125.003 31 125.003Z" fill="#FF0000"/>
<path d="M69 125C65.1 125 61.7917 123.642 59.075 120.925C56.3583 118.209 55 114.901 55 111.001C55 107.668 56.025 104.727 58.075 102.177C60.125 99.6272 62.7667 98.0023 66 97.3024C65.1333 97.1358 64.3 96.8941 63.5 96.5775C62.7 96.2608 61.9833 95.7859 61.35 95.1526C60.4167 94.186 59.7917 93.0694 59.475 91.8029C59.1583 90.5363 59 89.2364 59 87.9032V87.0033C61.8667 86.9366 64.3333 87.8782 66.4 89.8281C68.4667 91.7779 69.4833 94.1693 69.45 97.0024C69.9167 95.5692 70.575 94.236 71.425 93.0028C72.275 91.7696 73.2333 90.6197 74.3 89.5531C74.6 89.2531 74.95 89.1031 75.35 89.1031C75.75 89.1031 76.1 89.2531 76.4 89.5531C76.7 89.8531 76.85 90.203 76.85 90.603C76.85 91.003 76.7 91.3529 76.4 91.6529C75.5667 92.4862 74.8167 93.3861 74.15 94.3527C73.4833 95.3192 72.9167 96.3358 72.45 97.4024C75.5833 98.2023 78.125 99.8605 80.075 102.377C82.025 104.893 83 107.768 83 111.001C83 114.901 81.6417 118.209 78.925 120.925C76.2083 123.642 72.9 125 69 125Z" fill="#FF0000"/>
</svg>
