<svg width="99" height="128" viewBox="0 0 99 128" fill="none" xmlns="http://www.w3.org/2000/svg">
<rect x="0.25" y="0.25" width="98.5" height="127.5" fill="transparent"/>
<path d="M25 44.919C22.2375 44.919 19.8941 43.9569 17.9698 42.0326C16.0455 40.1082 15.0834 37.7648 15.0834 35.0023C15.0834 32.6412 15.8094 30.5576 17.2615 28.7513C18.7136 26.9451 20.5848 25.794 22.875 25.2982C22.2612 25.1801 21.6709 25.0089 21.1042 24.7846C20.5375 24.5603 20.0299 24.2239 19.5813 23.7753C18.9202 23.0905 18.4775 22.2996 18.2532 21.4023C18.0289 20.5051 17.9167 19.5843 17.9167 18.6398V18.0023C19.9473 17.9551 21.6945 18.6221 23.1584 20.0034C24.6223 21.3846 25.3424 23.0787 25.3188 25.0857C25.6493 24.0704 26.1157 23.126 26.7177 22.2523C27.3198 21.3787 27.9987 20.5641 28.7542 19.8086C28.9667 19.5961 29.2146 19.4898 29.498 19.4898C29.7813 19.4898 30.0292 19.5961 30.2417 19.8086C30.4542 20.0211 30.5605 20.269 30.5605 20.5523C30.5605 20.8357 30.4542 21.0836 30.2417 21.2961C29.6514 21.8864 29.1202 22.5239 28.648 23.2086C28.1757 23.8933 27.7743 24.6135 27.4438 25.369C29.6632 25.9357 31.4636 27.1103 32.8448 28.893C34.2261 30.6756 34.9167 32.7121 34.9167 35.0023C34.9167 37.7648 33.9546 40.1082 32.0302 42.0326C30.1059 43.9569 27.7625 44.919 25 44.919Z" fill="#FF0000"/>
<path d="M74.8975 26.7869L74.8861 25.8072C74.302 25.6949 73.7418 25.5323 73.2049 25.3197C72.7056 25.1221 72.2561 24.8255 71.8545 24.4248C71.2542 23.8019 70.8569 23.0893 70.6549 22.2811C70.4407 21.4243 70.3333 20.5443 70.3333 19.6398V19.5057C72.0244 19.5705 73.4833 20.189 74.7319 21.3671C76.0945 22.6527 76.7574 24.213 76.7355 26.0798L77.7109 26.2405C78.0266 25.2707 78.4715 24.3698 79.0461 23.5361C79.6308 22.6876 80.2901 21.8964 81.0244 21.1621L80.685 20.8227L81.0244 21.1621C81.1494 21.0371 81.2725 20.9898 81.4146 20.9898C81.5566 20.9898 81.6797 21.0371 81.8048 21.1621C81.9298 21.2872 81.9771 21.4103 81.9771 21.5523C81.9771 21.6944 81.9298 21.8175 81.8048 21.9425L82.1583 22.2961L81.8048 21.9425C81.1932 22.5542 80.6425 23.215 80.153 23.9247C79.6628 24.6355 79.2458 25.3836 78.9023 26.1686L78.6664 26.7079L79.2367 26.8535C81.3502 27.3931 83.0543 28.506 84.3662 30.1992C85.6784 31.8927 86.3333 33.8211 86.3333 36.0023C86.3333 38.6345 85.4223 40.85 83.5933 42.679C81.7644 44.508 79.5488 45.419 76.9167 45.419C74.2845 45.419 72.069 44.508 70.24 42.679C68.4111 40.85 67.5 38.6345 67.5 36.0023C67.5 33.7528 68.1886 31.7802 69.5678 30.0646C70.9473 28.3487 72.7178 27.2588 74.8975 26.7869Z" fill="#FF0000" stroke="white"/>
<g clip-path="url(#clip0_108_58)">
<path d="M22.8975 66.9559L22.8861 65.9762C22.302 65.8639 21.7418 65.7013 21.2049 65.4887C20.7056 65.2911 20.2561 64.9946 19.8545 64.5938C19.2542 63.971 18.8569 63.2583 18.6549 62.4501C18.4407 61.5934 18.3333 60.7133 18.3333 59.8088V59.6747C20.0244 59.7395 21.4833 60.358 22.7319 61.5361C24.0945 62.8217 24.7574 64.382 24.7355 66.2488L25.7109 66.4095C26.0266 65.4397 26.4715 64.5388 27.0461 63.7051C27.6308 62.8566 28.2901 62.0654 29.0244 61.3312L28.685 60.9917L29.0244 61.3312C29.1494 61.2061 29.2725 61.1588 29.4146 61.1588C29.5566 61.1588 29.6797 61.2061 29.8048 61.3312C29.9298 61.4562 29.9771 61.5793 29.9771 61.7213C29.9771 61.8634 29.9298 61.9865 29.8048 62.1115L30.1583 62.4651L29.8048 62.1115C29.1932 62.7232 28.6425 63.384 28.153 64.0937C27.6628 64.8045 27.2458 65.5526 26.9023 66.3376L26.6664 66.8769L27.2367 67.0225C29.3502 67.5621 31.0543 68.675 32.3662 70.3682C33.6784 72.0617 34.3333 73.9901 34.3333 76.1713C34.3333 78.8035 33.4223 81.019 31.5933 82.848C29.7644 84.677 27.5488 85.588 24.9167 85.588C22.2845 85.588 20.069 84.677 18.24 82.848C16.4111 81.019 15.5 78.8035 15.5 76.1713C15.5 73.9219 16.1886 71.9492 17.5678 70.2336C18.9473 68.5177 20.7178 67.4278 22.8975 66.9559Z" fill="#FF0000" stroke="white"/>
</g>
<path d="M75.8975 66.7869L75.8861 65.8072C75.302 65.6949 74.7418 65.5323 74.2049 65.3197C73.7056 65.1221 73.2561 64.8255 72.8545 64.4248C72.2542 63.8019 71.8569 63.0893 71.6549 62.2811C71.4407 61.4243 71.3333 60.5443 71.3333 59.6398V59.5057C73.0244 59.5705 74.4833 60.189 75.7319 61.3671C77.0945 62.6527 77.7574 64.213 77.7355 66.0798L78.7109 66.2405C79.0266 65.2707 79.4715 64.3698 80.0461 63.5361C80.6308 62.6876 81.2901 61.8964 82.0244 61.1621L81.685 60.8227L82.0244 61.1621C82.1494 61.0371 82.2725 60.9898 82.4146 60.9898C82.5566 60.9898 82.6797 61.0371 82.8048 61.1621C82.9298 61.2872 82.9771 61.4103 82.9771 61.5523C82.9771 61.6944 82.9298 61.8175 82.8048 61.9425L83.1583 62.2961L82.8048 61.9425C82.1932 62.5542 81.6425 63.215 81.153 63.9247C80.6628 64.6355 80.2458 65.3836 79.9023 66.1686L79.6664 66.7079L80.2367 66.8535C82.3502 67.3931 84.0543 68.506 85.3662 70.1992C86.6784 71.8927 87.3333 73.8211 87.3333 76.0023C87.3333 78.6345 86.4223 80.85 84.5933 82.679C82.7644 84.508 80.5488 85.419 77.9167 85.419C75.2845 85.419 73.069 84.508 71.24 82.679C69.4111 80.85 68.5 78.6345 68.5 76.0023C68.5 73.7528 69.1886 71.7802 70.5678 70.0646C71.9473 68.3487 73.7178 67.2588 75.8975 66.7869Z" fill="#FF0000" stroke="white"/>
<path d="M23.9808 103.618L23.9694 102.638C23.3854 102.526 22.8251 102.363 22.2882 102.151C21.7889 101.953 21.3394 101.657 20.9379 101.256C20.3375 100.633 19.9403 99.9203 19.7382 99.1121C19.524 98.2553 19.4167 97.3753 19.4167 96.4708V96.3367C21.1078 96.4015 22.5666 97.02 23.8152 98.198C25.1778 99.4837 25.8407 101.044 25.8188 102.911L26.7942 103.071C27.1099 102.102 27.5548 101.201 28.1294 100.367C28.7141 99.5186 29.3735 98.7274 30.1077 97.9931L29.7683 97.6537L30.1077 97.9931C30.2328 97.8681 30.3559 97.8208 30.4979 97.8208C30.64 97.8208 30.7631 97.8681 30.8881 97.9931C31.0132 98.1182 31.0604 98.2413 31.0604 98.3833C31.0604 98.5254 31.0132 98.6485 30.8881 98.7735L31.2417 99.1271L30.8881 98.7735C30.2765 99.3852 29.7258 100.046 29.2363 100.756C28.7461 101.466 28.3291 102.215 27.9857 103L27.7497 103.539L28.3201 103.684C30.4335 104.224 32.1376 105.337 33.4496 107.03C34.7618 108.724 35.4167 110.652 35.4167 112.833C35.4167 115.465 34.5056 117.681 32.6767 119.51C30.8477 121.339 28.6321 122.25 26 122.25C23.3679 122.25 21.1523 121.339 19.3233 119.51C17.4944 117.681 16.5833 115.465 16.5833 112.833C16.5833 110.584 17.2719 108.611 18.6511 106.896C20.0306 105.18 21.8011 104.09 23.9808 103.618Z" fill="#FF0000" stroke="white"/>
<path d="M74.9808 103.618L74.9694 102.638C74.3854 102.526 73.8251 102.363 73.2882 102.151C72.7889 101.953 72.3394 101.657 71.9379 101.256C71.3375 100.633 70.9403 99.9203 70.7382 99.1121C70.524 98.2553 70.4167 97.3753 70.4167 96.4708V96.3367C72.1078 96.4015 73.5666 97.02 74.8152 98.198C76.1778 99.4837 76.8407 101.044 76.8188 102.911L77.7942 103.071C78.1099 102.102 78.5548 101.201 79.1294 100.367C79.7141 99.5186 80.3735 98.7274 81.1077 97.9931L80.7683 97.6537L81.1077 97.9931C81.2328 97.8681 81.3559 97.8208 81.4979 97.8208C81.64 97.8208 81.7631 97.8681 81.8881 97.9931C82.0132 98.1182 82.0604 98.2413 82.0604 98.3833C82.0604 98.5254 82.0132 98.6485 81.8881 98.7735L82.2417 99.1271L81.8881 98.7735C81.2765 99.3852 80.7258 100.046 80.2363 100.756C79.7461 101.466 79.3291 102.215 78.9857 103L78.7497 103.539L79.3201 103.684C81.4335 104.224 83.1376 105.337 84.4496 107.03C85.7618 108.724 86.4167 110.652 86.4167 112.833C86.4167 115.465 85.5056 117.681 83.6767 119.51C81.8477 121.339 79.6321 122.25 77 122.25C74.3679 122.25 72.1523 121.339 70.3233 119.51C68.4944 117.681 67.5833 115.465 67.5833 112.833C67.5833 110.584 68.2719 108.611 69.6511 106.896C71.0306 105.18 72.8011 104.09 74.9808 103.618Z" fill="#FF0000" stroke="white"/>
<path d="M49.8975 50.7869L49.8861 49.8072C49.302 49.6949 48.7418 49.5323 48.2049 49.3197C47.7056 49.1221 47.2561 48.8255 46.8545 48.4248C46.2542 47.8019 45.8569 47.0893 45.6549 46.2811C45.4407 45.4243 45.3333 44.5443 45.3333 43.6398V43.5057C47.0244 43.5705 48.4833 44.189 49.7319 45.3671C51.0945 46.6527 51.7574 48.213 51.7355 50.0798L52.7109 50.2405C53.0266 49.2707 53.4715 48.3698 54.0461 47.5361C54.6308 46.6876 55.2901 45.8964 56.0244 45.1621L55.685 44.8227L56.0244 45.1621C56.1494 45.0371 56.2725 44.9898 56.4146 44.9898C56.5566 44.9898 56.6797 45.0371 56.8048 45.1621C56.9298 45.2872 56.9771 45.4103 56.9771 45.5523C56.9771 45.6944 56.9298 45.8175 56.8048 45.9425L57.1583 46.2961L56.8048 45.9425C56.1932 46.5542 55.6425 47.215 55.153 47.9247C54.6628 48.6355 54.2458 49.3836 53.9023 50.1686L53.6664 50.7079L54.2367 50.8535C56.3502 51.3931 58.0543 52.506 59.3662 54.1992C60.6784 55.8927 61.3333 57.8211 61.3333 60.0023C61.3333 62.6345 60.4223 64.85 58.5933 66.679C56.7644 68.508 54.5488 69.419 51.9167 69.419C49.2845 69.419 47.069 68.508 45.24 66.679C43.4111 64.85 42.5 62.6345 42.5 60.0023C42.5 57.7528 43.1886 55.7802 44.5678 54.0646C45.9473 52.3487 47.7178 51.2588 49.8975 50.7869Z" fill="#FF0000" stroke="white"/>
<path d="M48.9808 15.6178L48.9694 14.6382C48.3854 14.5258 47.8251 14.3633 47.2882 14.1507C46.7889 13.9531 46.3394 13.6565 45.9379 13.2558C45.3375 12.6329 44.9403 11.9203 44.7382 11.1121C44.524 10.2553 44.4167 9.37527 44.4167 8.47084V8.33668C46.1078 8.40149 47.5666 9.01998 48.8152 10.198C50.1778 11.4837 50.8407 13.044 50.8188 14.9108L51.7942 15.0715C52.1099 14.1017 52.5548 13.2007 53.1294 12.3671C53.7141 11.5186 54.3735 10.7274 55.1077 9.99314L54.7683 9.65373L55.1077 9.99314C55.2328 9.86809 55.3559 9.82084 55.4979 9.82084C55.64 9.82084 55.7631 9.86809 55.8881 9.99314C56.0132 10.1182 56.0604 10.2413 56.0604 10.3833C56.0604 10.5254 56.0132 10.6485 55.8881 10.7735L56.2417 11.1271L55.8881 10.7735C55.2765 11.3852 54.7258 12.046 54.2363 12.7557C53.7461 13.4665 53.3291 14.2145 52.9857 14.9996L52.7497 15.5388L53.3201 15.6845C55.4335 16.2241 57.1376 17.337 58.4496 19.0302C59.7618 20.7237 60.4167 22.6521 60.4167 24.8333C60.4167 27.4655 59.5056 29.681 57.6767 31.51C55.8477 33.339 53.6321 34.25 51 34.25C48.3679 34.25 46.1523 33.339 44.3233 31.51C42.4944 29.681 41.5833 27.4655 41.5833 24.8333C41.5833 22.5838 42.2719 20.6112 43.6511 18.8956C45.0306 17.1797 46.8011 16.0897 48.9808 15.6178Z" fill="#FF0000" stroke="white"/>
<path d="M49.9808 86.6178L49.9694 85.6382C49.3854 85.5258 48.8251 85.3633 48.2882 85.1507C47.7889 84.9531 47.3394 84.6565 46.9379 84.2558C46.3375 83.6329 45.9403 82.9203 45.7382 82.1121C45.524 81.2553 45.4167 80.3753 45.4167 79.4708V79.3367C47.1078 79.4015 48.5666 80.02 49.8152 81.198C51.1778 82.4837 51.8407 84.044 51.8188 85.9108L52.7942 86.0715C53.1099 85.1017 53.5548 84.2007 54.1294 83.3671C54.7141 82.5186 55.3735 81.7274 56.1077 80.9931L55.7683 80.6537L56.1077 80.9931C56.2328 80.8681 56.3559 80.8208 56.4979 80.8208C56.64 80.8208 56.7631 80.8681 56.8881 80.9931C57.0132 81.1182 57.0604 81.2413 57.0604 81.3833C57.0604 81.5254 57.0132 81.6485 56.8881 81.7735L57.2417 82.1271L56.8881 81.7735C56.2765 82.3852 55.7258 83.046 55.2363 83.7557C54.7461 84.4665 54.3291 85.2145 53.9857 85.9996L53.7497 86.5388L54.3201 86.6845C56.4335 87.2241 58.1376 88.337 59.4496 90.0302C60.7618 91.7237 61.4167 93.6521 61.4167 95.8333C61.4167 98.4655 60.5056 100.681 58.6767 102.51C56.8477 104.339 54.6321 105.25 52 105.25C49.3679 105.25 47.1523 104.339 45.3233 102.51C43.4944 100.681 42.5833 98.4655 42.5833 95.8333C42.5833 93.5838 43.2719 91.6112 44.6511 89.8956C46.0306 88.1797 47.8011 87.0897 49.9808 86.6178Z" fill="#FF0000" stroke="white"/>
<defs>
<clipPath id="clip0_108_58">
<rect width="34" height="34" fill="transparent" transform="translate(8 52.169)"/>
</clipPath>
</defs>
</svg>
