<svg width="99" height="128" viewBox="0 0 99 128" fill="none" xmlns="http://www.w3.org/2000/svg">
<rect x="0.25" y="0.25" width="98.5" height="127.5" fill="transparent"/>
<path d="M22 45.0033C18.1 45.0033 14.7917 43.645 12.075 40.9283C9.35833 38.2116 8 34.9033 8 31.0033C8 27.67 9.025 24.7283 11.075 22.1783C13.125 19.6283 15.7667 18.0033 19 17.3033C18.1333 17.1366 17.3 16.895 16.5 16.5783C15.7 16.2616 14.9833 15.7866 14.35 15.1533C13.4167 14.1866 12.7917 13.07 12.475 11.8033C12.1583 10.5366 12 9.23664 12 7.90331V7.00331C14.8667 6.93664 17.3333 7.87831 19.4 9.82831C21.4667 11.7783 22.4833 14.17 22.45 17.0033C22.9167 15.57 23.575 14.2366 24.425 13.0033C25.275 11.77 26.2333 10.62 27.3 9.55331C27.6 9.25331 27.95 9.10331 28.35 9.10331C28.75 9.10331 29.1 9.25331 29.4 9.55331C29.7 9.85331 29.85 10.2033 29.85 10.6033C29.85 11.0033 29.7 11.3533 29.4 11.6533C28.5667 12.4866 27.8167 13.3866 27.15 14.3533C26.4833 15.32 25.9167 16.3366 25.45 17.4033C28.5833 18.2033 31.125 19.8616 33.075 22.3783C35.025 24.895 36 27.77 36 31.0033C36 34.9033 34.6417 38.2116 31.925 40.9283C29.2083 43.645 25.9 45.0033 22 45.0033Z" fill="#FF0000"/>
<path d="M50 83.0033C46.1 83.0033 42.7917 81.645 40.075 78.9283C37.3583 76.2116 36 72.9033 36 69.0033C36 65.67 37.025 62.7283 39.075 60.1783C41.125 57.6283 43.7667 56.0033 47 55.3033C46.1333 55.1366 45.3 54.895 44.5 54.5783C43.7 54.2616 42.9833 53.7866 42.35 53.1533C41.4167 52.1866 40.7917 51.07 40.475 49.8033C40.1583 48.5366 40 47.2366 40 45.9033V45.0033C42.8667 44.9366 45.3333 45.8783 47.4 47.8283C49.4667 49.7783 50.4833 52.17 50.45 55.0033C50.9167 53.57 51.575 52.2366 52.425 51.0033C53.275 49.77 54.2333 48.62 55.3 47.5533C55.6 47.2533 55.95 47.1033 56.35 47.1033C56.75 47.1033 57.1 47.2533 57.4 47.5533C57.7 47.8533 57.85 48.2033 57.85 48.6033C57.85 49.0033 57.7 49.3533 57.4 49.6533C56.5667 50.4866 55.8167 51.3866 55.15 52.3533C54.4833 53.32 53.9167 54.3366 53.45 55.4033C56.5833 56.2033 59.125 57.8616 61.075 60.3783C63.025 62.895 64 65.77 64 69.0033C64 72.9033 62.6417 76.2116 59.925 78.9283C57.2083 81.645 53.9 83.0033 50 83.0033Z" fill="#FF0000"/>
<path d="M76 45.0033C72.1 45.0033 68.7917 43.645 66.075 40.9283C63.3583 38.2116 62 34.9033 62 31.0033C62 27.67 63.025 24.7283 65.075 22.1783C67.125 19.6283 69.7667 18.0033 73 17.3033C72.1333 17.1366 71.3 16.895 70.5 16.5783C69.7 16.2616 68.9833 15.7866 68.35 15.1533C67.4167 14.1866 66.7917 13.07 66.475 11.8033C66.1583 10.5366 66 9.23664 66 7.90331V7.00331C68.8667 6.93664 71.3333 7.87831 73.4 9.82831C75.4667 11.7783 76.4833 14.17 76.45 17.0033C76.9167 15.57 77.575 14.2366 78.425 13.0033C79.275 11.77 80.2333 10.62 81.3 9.55331C81.6 9.25331 81.95 9.10331 82.35 9.10331C82.75 9.10331 83.1 9.25331 83.4 9.55331C83.7 9.85331 83.85 10.2033 83.85 10.6033C83.85 11.0033 83.7 11.3533 83.4 11.6533C82.5667 12.4866 81.8167 13.3866 81.15 14.3533C80.4833 15.32 79.9167 16.3366 79.45 17.4033C82.5833 18.2033 85.125 19.8616 87.075 22.3783C89.025 24.895 90 27.77 90 31.0033C90 34.9033 88.6417 38.2116 85.925 40.9283C83.2083 43.645 79.9 45.0033 76 45.0033Z" fill="#FF0000"/>
<path d="M78 121.003C74.1 121.003 70.7917 119.645 68.075 116.928C65.3583 114.212 64 110.903 64 107.003C64 103.67 65.025 100.728 67.075 98.1783C69.125 95.6283 71.7667 94.0033 75 93.3033C74.1333 93.1366 73.3 92.895 72.5 92.5783C71.7 92.2616 70.9833 91.7866 70.35 91.1533C69.4167 90.1866 68.7917 89.07 68.475 87.8033C68.1583 86.5366 68 85.2366 68 83.9033V83.0033C70.8667 82.9366 73.3333 83.8783 75.4 85.8283C77.4667 87.7783 78.4833 90.17 78.45 93.0033C78.9167 91.57 79.575 90.2366 80.425 89.0033C81.275 87.77 82.2333 86.62 83.3 85.5533C83.6 85.2533 83.95 85.1033 84.35 85.1033C84.75 85.1033 85.1 85.2533 85.4 85.5533C85.7 85.8533 85.85 86.2033 85.85 86.6033C85.85 87.0033 85.7 87.3533 85.4 87.6533C84.5667 88.4866 83.8167 89.3866 83.15 90.3533C82.4833 91.32 81.9167 92.3366 81.45 93.4033C84.5833 94.2033 87.125 95.8616 89.075 98.3783C91.025 100.895 92 103.77 92 107.003C92 110.903 90.6417 114.212 87.925 116.928C85.2083 119.645 81.9 121.003 78 121.003Z" fill="#FF0000"/>
<path d="M22 121.003C18.1 121.003 14.7917 119.645 12.075 116.928C9.35833 114.212 8 110.903 8 107.003C8 103.67 9.025 100.728 11.075 98.1783C13.125 95.6283 15.7667 94.0033 19 93.3033C18.1333 93.1366 17.3 92.895 16.5 92.5783C15.7 92.2616 14.9833 91.7866 14.35 91.1533C13.4167 90.1866 12.7917 89.07 12.475 87.8033C12.1583 86.5366 12 85.2366 12 83.9033V83.0033C14.8667 82.9366 17.3333 83.8783 19.4 85.8283C21.4667 87.7783 22.4833 90.17 22.45 93.0033C22.9167 91.57 23.575 90.2366 24.425 89.0033C25.275 87.77 26.2333 86.62 27.3 85.5533C27.6 85.2533 27.95 85.1033 28.35 85.1033C28.75 85.1033 29.1 85.2533 29.4 85.5533C29.7 85.8533 29.85 86.2033 29.85 86.6033C29.85 87.0033 29.7 87.3533 29.4 87.6533C28.5667 88.4866 27.8167 89.3866 27.15 90.3533C26.4833 91.32 25.9167 92.3366 25.45 93.4033C28.5833 94.2033 31.125 95.8616 33.075 98.3783C35.025 100.895 36 103.77 36 107.003C36 110.903 34.6417 114.212 31.925 116.928C29.2083 119.645 25.9 121.003 22 121.003Z" fill="#FF0000"/>
</svg>
