<svg width="99" height="129" viewBox="0 0 99 129" fill="none" xmlns="http://www.w3.org/2000/svg">
<rect x="0.25" y="0.25" width="98.5" height="127.5" fill="transparent"/>
<path d="M21.1058 15.7887L21.0944 14.809C20.2576 14.6481 19.4543 14.415 18.684 14.1101C17.9514 13.8201 17.2929 13.385 16.7066 12.7995C15.834 11.8947 15.2545 10.8564 14.9601 9.67873C14.6535 8.45257 14.5 7.19333 14.5 5.9V5.49875C17.0275 5.54697 19.2051 6.44146 21.0569 8.18867C23.0222 10.0431 23.9817 12.3009 23.95 14.9941L24.9254 15.1548C25.3773 13.767 26.0142 12.4771 26.8367 11.2837C27.6694 10.0756 28.6082 8.94892 29.6536 7.90356C29.8661 7.69101 30.0913 7.6 30.35 7.6C30.6087 7.6 30.8339 7.69101 31.0464 7.90356L31.4 7.55L31.0464 7.90356C31.259 8.1161 31.35 8.34128 31.35 8.6C31.35 8.85873 31.259 9.0839 31.0464 9.29645L31.4 9.65L31.0464 9.29645C30.1918 10.1511 29.4223 11.0744 28.7384 12.0661C28.0538 13.0588 27.4715 14.1034 26.9919 15.1996L26.756 15.7389L27.3263 15.8845C30.3537 16.6574 32.7991 18.254 34.6798 20.6812C36.5607 23.1088 37.5 25.8757 37.5 29C37.5 32.7696 36.1928 35.9501 33.5714 38.5714C30.9501 41.1928 27.7696 42.5 24 42.5C20.2304 42.5 17.0499 41.1928 14.4286 38.5714C11.8072 35.9501 10.5 32.7696 10.5 29C10.5 25.7783 11.4875 22.9477 13.4647 20.4883C15.4421 18.0286 17.983 16.4647 21.1058 15.7887Z" fill="#FF0000" stroke="white"/>
<path d="M45.1058 55.7887L45.0944 54.809C44.2576 54.6481 43.4543 54.415 42.684 54.1101C41.9514 53.8201 41.2929 53.385 40.7066 52.7995C39.834 51.8947 39.2545 50.8564 38.9601 49.6787C38.6535 48.4526 38.5 47.1933 38.5 45.9V45.4988C41.0275 45.547 43.2051 46.4415 45.0569 48.1887C47.0222 50.0431 47.9817 52.3009 47.95 54.9941L48.9254 55.1548C49.3773 53.767 50.0142 52.4771 50.8367 51.2837C51.6694 50.0756 52.6082 48.9489 53.6536 47.9036C53.8661 47.691 54.0913 47.6 54.35 47.6C54.6087 47.6 54.8339 47.691 55.0464 47.9036L55.4 47.55L55.0464 47.9036C55.259 48.1161 55.35 48.3413 55.35 48.6C55.35 48.8587 55.259 49.0839 55.0464 49.2964L55.4 49.65L55.0464 49.2964C54.1918 50.1511 53.4223 51.0744 52.7384 52.0661C52.0538 53.0588 51.4715 54.1034 50.9919 55.1996L50.756 55.7388L51.3263 55.8845C54.3537 56.6574 56.7991 58.254 58.6798 60.6812C60.5607 63.1088 61.5 65.8757 61.5 69C61.5 72.7696 60.1928 75.9501 57.5714 78.5714C54.9501 81.1928 51.7696 82.5 48 82.5C44.2304 82.5 41.0499 81.1928 38.4286 78.5714C35.8072 75.9501 34.5 72.7696 34.5 69C34.5 65.7783 35.4875 62.9477 37.4647 60.4883C39.4421 58.0286 41.983 56.4647 45.1058 55.7887Z" fill="#FF0000" stroke="white"/>
<path d="M70.1058 95.7887L70.0944 94.809C69.2576 94.6481 68.4543 94.415 67.684 94.1101C66.9514 93.8201 66.2929 93.385 65.7066 92.7995C64.834 91.8947 64.2545 90.8564 63.9601 89.6787C63.6535 88.4526 63.5 87.1933 63.5 85.9V85.4988C66.0275 85.547 68.2051 86.4415 70.0569 88.1887C72.0222 90.0431 72.9817 92.3009 72.95 94.9941L73.9254 95.1548C74.3773 93.767 75.0142 92.4771 75.8367 91.2837C76.6694 90.0756 77.6082 88.9489 78.6536 87.9036C78.8661 87.691 79.0913 87.6 79.35 87.6C79.6087 87.6 79.8339 87.691 80.0464 87.9036L80.4 87.55L80.0464 87.9036C80.259 88.1161 80.35 88.3413 80.35 88.6C80.35 88.8587 80.259 89.0839 80.0464 89.2964L80.4 89.65L80.0464 89.2964C79.1918 90.1511 78.4223 91.0744 77.7384 92.0661C77.0538 93.0588 76.4715 94.1034 75.9919 95.1996L75.756 95.7388L76.3263 95.8845C79.3537 96.6574 81.7991 98.254 83.6798 100.681C85.5607 103.109 86.5 105.876 86.5 109C86.5 112.77 85.1928 115.95 82.5714 118.571C79.9501 121.193 76.7696 122.5 73 122.5C69.2304 122.5 66.0499 121.193 63.4286 118.571C60.8072 115.95 59.5 112.77 59.5 109C59.5 105.778 60.4875 102.948 62.4647 100.488C64.4421 98.0286 66.983 96.4647 70.1058 95.7887Z" fill="#FF0000" stroke="white"/>
</svg>
